<?xml version="1.0" encoding="utf-8"?>
<!-- Generator: Adobe Illustrator 22.0.0, SVG Export Plug-In . SVG Version: 6.00 Build 0)  -->
<svg version="1.1" id="a75d69e6-d07c-4db3-9c83-72b2470e5561"
	 xmlns="http://www.w3.org/2000/svg" xmlns:xlink="http://www.w3.org/1999/xlink" x="0px" y="0px" viewBox="0 0 1108 731.2"
	 style="enable-background:new 0 0 1108 731.2;" xml:space="preserve">
<style type="text/css">
	.st0{fill:#3F3D56;}
	.st1{opacity:0.1;fill:#6E9EC5;enable-background:new    ;}
	.st2{fill:#F5E984;}
	.st3{opacity:0.2;enable-background:new    ;}
	.st4{fill:#6E9EC5;}
	.st5{fill:#FFFFFF;}
	.st6{opacity:0.1;enable-background:new    ;}
</style>
<title>react</title>
<ellipse class="st0" cx="552" cy="602.7" rx="554" ry="23.5"/>
<ellipse class="st1" cx="552" cy="602.7" rx="554" ry="23.5"/>
<ellipse class="st2" cx="552" cy="589.7" rx="554" ry="23.5"/>
<path class="st3" d="M1071.9,698.6c2.5-1.5,3.5-7.1,3.9-9.7h0.4c0,0-0.7,8.9-4,11s-19.9,4.1-32.4,4c-3.6,0-4.9-1.3-4.8-3.2
	c0.5,1.1,1.8,1.9,4.5,1.9"/>
<path class="st4" d="M743.6,226.1c-6.6-2.3-13.3-4.4-20-6.3c1.1-4.5,2.1-9.1,3.1-13.6c15.1-73.5,5.2-132.7-28.6-152.2
	c-32.4-18.7-85.4,0.8-139,47.4c-5.3,4.6-10.4,9.3-15.5,14.2c-3.4-3.2-6.8-6.4-10.3-9.5C477.2,56.3,421,35.3,387.2,54.8
	c-32.4,18.8-42,74.4-28.4,144.1c1.3,6.9,2.9,13.8,4.6,20.6c-8,2.3-15.6,4.7-23,7.2c-65.8,22.9-107.8,58.9-107.8,96.2
	c0,38.5,45.1,77.1,113.6,100.6c5.6,1.9,11.2,3.6,16.8,5.3c-1.8,7.3-3.5,14.7-4.9,22.2c-13,68.5-2.8,122.8,29.5,141.4
	c33.4,19.3,89.4-0.5,143.9-48.2c4.3-3.8,8.6-7.8,13-12c5.5,5.3,11,10.4,16.8,15.3c52.8,45.4,105,63.8,137.3,45.1
	c33.3-19.3,44.2-77.7,30.1-148.7c-1.1-5.4-2.3-11-3.7-16.6c3.9-1.2,7.8-2.4,11.6-3.6c71.2-23.6,117.6-61.8,117.6-100.8
	C854.1,285.5,810.7,249.3,743.6,226.1L743.6,226.1z"/>
<path class="st5" d="M728.1,398.5c-3.4,1.1-6.9,2.2-10.4,3.3c-8.7-26.9-19.2-53.2-31.5-78.7c11.8-25.2,21.9-51.1,30.3-77.6
	c6.3,1.8,12.5,3.8,18.5,5.8c57.5,19.8,92.6,49.1,92.6,71.6C827.5,346.9,789.6,378.1,728.1,398.5z M702.6,449.1
	c6.2,31.4,7.1,59.8,3,82c-3.7,19.9-11.1,33.3-20.3,38.6c-19.6,11.3-61.5-3.4-106.6-42.3c-5.2-4.5-10.4-9.2-15.6-14.3
	c18.8-20.8,36.2-42.9,52.1-66.1c28.3-2.4,56.4-6.7,84.2-13C700.5,439.1,701.6,444.1,702.6,449.1L702.6,449.1z M444.5,567.7
	c-19.1,6.8-34.4,7-43.6,1.6c-19.6-11.3-27.8-55-16.6-113.5c1.3-6.9,2.8-13.8,4.5-20.6c27.6,5.9,55.6,10,83.8,12.1
	c16.3,23.1,34.1,45.1,53.3,65.9c-3.9,3.7-7.8,7.4-11.8,10.9C489.9,545.2,465.8,560.1,444.5,567.7L444.5,567.7z M354.8,398.3
	c-30.3-10.4-55.3-23.8-72.5-38.5c-15.4-13.2-23.2-26.3-23.2-36.9c0-22.6,33.7-51.5,90-71.1c7.1-2.5,14.2-4.7,21.4-6.7
	c8.4,26.8,18.5,53,30.3,78.5c-12,25.8-22.2,52.4-30.7,79.6C365,401.6,359.9,400,354.8,398.3z M384.9,193.8
	c-11.7-59.7-3.9-104.7,15.6-116c20.8-12,66.8,5.1,115.2,48.1c3.1,2.8,6.2,5.6,9.3,8.6c-19.1,20.6-36.8,42.5-52.9,65.5
	c-27.9,2.5-55.6,6.8-82.9,12.9C387.6,206.6,386.1,200.2,384.9,193.8L384.9,193.8z M653,260c-6.1-10.5-12.4-20.9-18.9-31.1
	c19.8,2.5,38.8,5.8,56.7,9.9c-5.7,18.2-12.4,36-19.9,53.5C665.1,281.4,659.2,270.6,653,260L653,260z M543.6,153.5
	c12.9,14.1,25.1,28.8,36.6,44.1c-24.5-1.2-49-1.2-73.5,0C518.8,181.7,531.2,166.9,543.6,153.5L543.6,153.5z M433.6,260.1
	c-6.1,10.6-11.9,21.3-17.5,32.1c-7.7-18.3-14.3-36.4-19.7-53.8c17.7-4,36.6-7.2,56.3-9.7C446.1,239.1,439.7,249.6,433.6,260.1
	L433.6,260.1z M453.3,418.8c-19.2-2.1-38.3-5.2-57.3-9.2c5.5-17.7,12.3-36.1,20.1-54.9c5.6,10.9,11.5,21.6,17.6,32.2
	C440,397.7,446.5,408.3,453.3,418.8L453.3,418.8z M544.4,494.1c-12.6-13.5-25.2-28.5-37.4-44.8c11.9,0.5,24,0.7,36.4,0.7
	c12.7,0,25.2-0.3,37.5-0.8C569.5,464.8,557.3,479.8,544.4,494.1L544.4,494.1z M671.1,353.8c7.9,17.8,14.9,36.1,20.9,54.7
	c-19.1,4.3-38.5,7.6-58,9.9c6.6-10.4,12.9-21,19.1-31.6C659.3,375.9,665.3,364.9,671.1,353.8z M630.1,373.4
	c-9.4,16.3-19.3,32.4-29.8,48.1c-18.4,1.3-37.5,2-56.9,2s-38.2-0.6-56.3-1.8c-10.7-15.7-20.9-31.7-30.4-48.2
	c-9.5-16.4-18.4-33.1-26.5-50.1c8.2-17,17-33.7,26.4-50.1l0,0c9.4-16.4,19.5-32.4,30.1-48c18.5-1.4,37.4-2.1,56.6-2.1
	s38.2,0.7,56.7,2.1c10.5,15.6,20.5,31.5,30,47.8s18.4,32.9,26.8,49.9C648.5,340.2,639.6,356.9,630.1,373.4L630.1,373.4z M684.9,77
	c20.8,12,28.9,60.4,15.8,123.9c-0.9,4.1-1.8,8.2-2.8,12.4c-27.4-6.2-55.1-10.6-83.1-13.1c-16-23-33.6-44.9-52.5-65.6
	c4.7-4.5,9.4-8.9,14.3-13.1C622.4,81.5,665.3,65.7,684.9,77L684.9,77z"/>
<path class="st4" d="M543.3,267.4c30.7,0,55.5,24.8,55.5,55.5s-24.8,55.5-55.5,55.5s-55.5-24.8-55.5-55.5S512.7,267.4,543.3,267.4
	L543.3,267.4"/>
<path class="st6" d="M527.2,26.4"/>
<path class="st6" d="M558.3,26"/>
</svg>
